<?xml version="1.0" encoding="UTF-8" standalone="no"?>
<!DOCTYPE svg PUBLIC "-//W3C//DTD SVG 1.1//EN" "http://www.w3.org/Graphics/SVG/1.1/DTD/svg11.dtd">
<svg width="100%" height="100%" viewBox="0 0 326 326" version="1.1" xmlns="http://www.w3.org/2000/svg" xmlns:xlink="http://www.w3.org/1999/xlink" xml:space="preserve" xmlns:serif="http://www.serif.com/" style="fill-rule:evenodd;clip-rule:evenodd;stroke-linecap:round;stroke-linejoin:round;stroke-miterlimit:1.5;">
    <g transform="matrix(1,0,0,1,-87.4379,-74.3584)">
        <g transform="matrix(1,0,0,1,11.755,1.3245)">
            <circle cx="238.245" cy="235.596" r="159.437" style="fill:rgb(60,134,118);"/>
            <clipPath id="_clip1">
                <circle cx="238.245" cy="235.596" r="159.437"/>
            </clipPath>
            <g clip-path="url(#_clip1)">
                <g transform="matrix(1.16912,0,0,0.467153,-78.2626,34.4516)">
                    <path d="M407.947,60.927L137.748,60.927L138.315,192.767C223.935,171.405 311.737,135.158 407.947,151.656L407.947,60.927Z" style="fill:rgb(86,188,141);"/>
                </g>
                <g transform="matrix(-1.16912,1.43176e-16,-5.72098e-17,-0.467153,621.309,433.76)">
                    <path d="M407.947,60.927L137.748,60.927L138.315,192.767C211.117,228.161 313.264,143.337 416.444,128.974L407.947,60.927Z" style="fill:rgb(86,188,141);"/>
                </g>
                <g transform="matrix(1.16912,0,0,0.467153,-77.6003,113.922)">
                    <path d="M407.947,60.927C325.904,81.45 225.264,65.384 136.615,114.797L137.748,151.656C226.499,134.094 320.151,138.952 413.612,184.261L407.947,60.927Z" style="fill:rgb(86,188,141);"/>
                </g>
                <g transform="matrix(1.16912,0,0,0.467153,-82.2361,181.471)">
                    <path d="M417.577,104.874C335.533,125.396 225.83,31.361 137.182,80.774L137.748,151.656C226.499,134.094 317.885,120.522 411.346,165.832L417.577,104.874Z" style="fill:rgb(86,188,141);"/>
                </g>
                <g transform="matrix(1.16912,0,0,0.467153,-78.9248,249.021)">
                    <path d="M415.311,89.28C370.859,-22.581 167.479,88.032 133.217,121.885L142.28,201.273C253.564,195.322 355.218,90.016 419.843,120.468L415.311,89.28Z" style="fill:rgb(86,188,141);"/>
                </g>
            </g>
            <circle cx="238.245" cy="235.596" r="159.437" style="fill:none;stroke:rgb(60,134,118);stroke-width:6.25px;"/>
        </g>
        <g transform="matrix(1.26408,0,0,1.26408,-98.5454,-56.3669)">
            <g transform="matrix(5.25402,0,0,5.25402,-919.543,-789.04)">
                <path d="M208.8,201.258C208.499,201.658 208.58,202.229 208.979,202.531C209.379,202.832 209.95,202.751 210.252,202.352L225.32,182.355C226.41,180.909 228.584,180.909 229.674,182.355L244.742,202.352C245.043,202.751 245.615,202.832 246.015,202.531C246.415,202.229 246.494,201.658 246.193,201.258L231.125,181.262C229.309,178.851 225.685,178.851 223.869,181.262L208.8,201.258Z" style="fill:white;fill-rule:nonzero;stroke:white;stroke-width:0.78px;stroke-linecap:butt;stroke-miterlimit:2;"/>
            </g>
            <g transform="matrix(2.31159,0,0,2.31159,-250.15,-221.514)">
                <path d="M208.8,201.258C208.499,201.658 208.58,202.229 208.979,202.531C209.379,202.832 209.95,202.751 210.252,202.352L225.32,182.355C226.41,180.909 228.584,180.909 229.674,182.355L244.742,202.352C245.043,202.751 245.615,202.832 246.015,202.531C246.415,202.229 246.494,201.658 246.193,201.258L231.125,181.262C229.309,178.851 225.685,178.851 223.869,181.262L208.8,201.258Z" style="fill:white;fill-rule:nonzero;stroke:white;stroke-width:2.77px;stroke-linecap:butt;stroke-miterlimit:2;"/>
            </g>
            <g transform="matrix(-1.06994,1.3103e-16,-1.3103e-16,-1.06994,519.139,430.997)">
                <path d="M208.8,201.258C208.499,201.658 208.58,202.229 208.979,202.531C209.379,202.832 209.95,202.751 210.252,202.352L225.32,182.355C226.41,180.909 228.584,180.909 229.674,182.355L244.742,202.352C245.043,202.751 245.615,202.832 246.015,202.531C246.415,202.229 246.494,201.658 246.193,201.258L231.125,181.262C229.309,178.851 225.685,178.851 223.869,181.262L208.8,201.258Z" style="fill:white;fill-rule:nonzero;stroke:white;stroke-width:7.47px;stroke-linecap:butt;stroke-miterlimit:2;"/>
            </g>
        </g>
    </g>
</svg>
