<?xml version="1.0" encoding="UTF-8" standalone="no"?><!DOCTYPE svg PUBLIC "-//W3C//DTD SVG 1.1//EN" "http://www.w3.org/Graphics/SVG/1.1/DTD/svg11.dtd"><svg width="100%" height="100%" viewBox="0 0 330 330" version="1.1" xmlns="http://www.w3.org/2000/svg" xmlns:xlink="http://www.w3.org/1999/xlink" xml:space="preserve" xmlns:serif="http://www.serif.com/" style="fill-rule:evenodd;clip-rule:evenodd;stroke-linecap:round;stroke-linejoin:round;stroke-miterlimit:1.5;"><circle cx="164.645" cy="164.645" r="159.437" style="fill:#2a7efa;"/><clipPath id="_clip1"><circle cx="164.645" cy="164.645" r="159.437"/></clipPath><g clip-path="url(#_clip1)"><path d="M325.076,-8.037l-315.894,0l0.662,61.59c100.101,-9.979 202.751,-26.913 315.232,-19.206l-0,-42.384Z" style="fill:#7aacf7;"/><path d="M70.771,334.347l315.894,0l-0.662,-61.589c-85.115,-16.534 -204.536,23.092 -325.166,29.801l9.934,31.788Z" style="fill:#7aacf7;"/><path d="M325.738,71.433c-95.918,9.588 -213.578,2.083 -317.218,25.166l1.324,17.219c103.76,-8.204 213.25,-5.935 322.517,15.231l-6.623,-57.616Z" style="fill:#7aacf7;"/><path d="M321.765,159.513c-95.919,9.587 -213.579,-34.342 -317.219,-11.258l0.662,33.112c103.76,-8.204 210.601,-14.544 319.868,6.623l-3.311,-28.477Z" style="fill:#7aacf7;"/><path d="M333.023,219.778c-51.969,-52.256 -289.744,-0.583 -329.801,15.232l10.596,37.086c130.104,-2.78 248.949,-51.974 324.503,-37.749l-5.298,-14.569Z" style="fill:#7aacf7;"/></g><circle cx="164.645" cy="164.645" r="159.437" style="fill:none;stroke:#0044ad;stroke-width:10.42px;"/><g><g><path d="M40.47,210.604c-1.999,2.657 -1.461,6.449 1.189,8.455c2.657,1.999 6.449,1.461 8.455,-1.189l100.074,-132.81c7.239,-9.604 21.678,-9.604 28.917,-0l100.074,132.81c2,2.65 5.799,3.188 8.455,1.189c2.657,-2.006 3.181,-5.798 1.182,-8.455l-100.074,-132.803c-12.061,-16.013 -36.13,-16.013 -48.191,-0l-100.081,132.803Z" style="fill:#fff;fill-rule:nonzero;stroke:#fff;stroke-width:5.18px;stroke-linecap:butt;stroke-miterlimit:2;"/></g><g><path d="M110.012,179.43c-0.88,1.169 -0.643,2.837 0.523,3.72c1.169,0.879 2.837,0.643 3.72,-0.523l44.029,-58.432c3.185,-4.226 9.538,-4.226 12.723,-0l44.029,58.432c0.879,1.166 2.551,1.402 3.72,0.523c1.168,-0.883 1.399,-2.551 0.52,-3.72l-44.03,-58.429c-5.306,-7.045 -15.895,-7.045 -21.202,-0l-44.032,58.429Z" style="fill:#fff;fill-rule:nonzero;stroke:#fff;stroke-width:8.09px;stroke-linecap:butt;stroke-miterlimit:2;"/></g><g><path d="M189.934,143.974c0.407,-0.541 0.298,-1.313 -0.242,-1.722c-0.541,-0.407 -1.313,-0.297 -1.722,0.242l-20.379,27.046c-1.474,1.956 -4.415,1.956 -5.889,0l-20.379,-27.046c-0.407,-0.539 -1.181,-0.649 -1.722,-0.242c-0.541,0.409 -0.648,1.181 -0.241,1.722l20.38,27.044c2.456,3.261 7.357,3.261 9.813,0l20.381,-27.044Z" style="fill:#fff;fill-rule:nonzero;stroke:#fff;stroke-width:10.1px;stroke-linecap:butt;stroke-miterlimit:2;"/></g></g></svg>